<svg xmlns="http://www.w3.org/2000/svg">
  <symbol id="star-wars-logo" viewBox="0 0 753 336">
    <path
      fill="currentColor"
      fill-rule="evenodd"
      clip-rule="evenodd"
      d="M0 104.974V157.476H153.574C171.425 157.476 194.231 140.97 194.231 113.665C194.231 102.683 198.431 95.5197 185.524 80.9936L165.88 57.7186C154.625 47.2183 167.225 47.2183 176.679 47.2183H241.52V157.476H292.942V47.2183H362.249V0H137.824C110.519 0 97.1674 26.2176 97.9186 39.868C98.674 53.5184 101.185 70.6925 123.875 91.3238C144.572 110.137 113.628 104.974 110.519 104.974H0ZM475.955 0H392.998L346.494 157.48H398.249L406.645 135.429H461.246L469.352 157.48H520.048L475.955 0ZM418.199 97.6239L436.05 39.868L452.854 97.6239H418.199ZM683.866 104.974C663.915 104.974 663.915 97.6239 663.915 97.6239C681.01 97.6239 696.167 72.7179 696.167 47.2183C696.167 21.7187 671.265 0 651.306 0H539.7V157.48H596.41V104.978C596.41 104.978 620.557 133.329 633.157 144.88C645.761 156.43 646.807 157.48 663.911 157.48H752.931V104.978C752.939 104.974 703.816 104.974 683.866 104.974ZM632.41 68.223H596.418V39.868H632.41C648.912 39.868 651.767 68.223 632.41 68.223ZM0 177.426H58.0174L72.7178 229.936L86.3683 177.426H147.274L163.025 229.936L178.779 177.426H229.181L182.975 334.944H136.774L116.529 260.383L93.7185 334.944H46.467L0 177.426ZM348.25 178.335H265.293L218.793 335.811H270.543L278.943 313.765H333.549L341.655 335.811H392.355L348.25 178.335ZM290.498 275.955L308.348 218.199L325.149 275.955H290.498ZM684.912 224.686C675.47 224.686 665.173 225.79 676.432 236.286L696.08 259.565C708.983 274.092 708.776 280.147 708.776 291.137C708.776 318.438 681.766 334.944 663.915 334.944L539.837 335.778C522.742 335.778 521.696 334.732 509.091 323.182C496.495 311.631 472.34 283.276 472.34 283.276V335.778H415.638V178.302H527.245C547.195 178.302 572.106 200.025 572.106 225.52C572.106 251.024 556.949 275.926 539.845 275.926C539.845 275.926 547.366 283.488 559.966 283.488C572.57 283.488 621.088 283.538 621.088 283.538C624.192 283.538 655.133 288.701 634.439 269.887C611.75 249.256 609.239 232.09 608.483 218.44C607.728 204.789 619.531 177.431 646.824 177.431H752.948V224.69L684.912 224.686ZM508.336 246.521H472.336V218.166H508.336C524.842 218.166 527.693 246.521 508.336 246.521Z"
    />
  </symbol>
  <symbol id="circle" viewBox="0 0 20 20">
    <circle cx="10" cy="10" r="10" fill="currentColor" />
  </symbol>
</svg>
